<svg width="48" height="48" viewBox="0 0 48 48" fill="none" xmlns="http://www.w3.org/2000/svg">
<path d="M24 0C10.7464 0 0 11.025 0 24.6107C0 35.4857 6.87857 44.7 16.4143 47.9571C16.548 47.9862 16.6846 48.0005 16.8214 48C17.7107 48 18.0536 47.3464 18.0536 46.7786C18.0536 46.1893 18.0321 44.6464 18.0214 42.5893C17.2275 42.7754 16.4154 42.8724 15.6 42.8786C10.9821 42.8786 9.93214 39.2893 9.93214 39.2893C8.83929 36.45 7.26429 35.6893 7.26429 35.6893C5.175 34.2214 7.25357 34.1786 7.41429 34.1786H7.425C9.83571 34.3928 11.1 36.7286 11.1 36.7286C12.3 38.8286 13.9071 39.4178 15.3429 39.4178C16.2922 39.3989 17.2268 39.1798 18.0857 38.775C18.3 37.1893 18.9214 36.1071 19.6071 35.4857C14.2821 34.8643 8.67857 32.7536 8.67857 23.325C8.67857 20.6357 9.61071 18.4393 11.1429 16.725C10.8964 16.1036 10.0714 13.5964 11.3786 10.2107C11.5539 10.1688 11.7341 10.1507 11.9143 10.1571C12.7821 10.1571 14.7429 10.4893 17.9786 12.7393C21.9102 11.6393 26.0684 11.6393 30 12.7393C33.2357 10.4893 35.1964 10.1571 36.0643 10.1571C36.2445 10.1507 36.4247 10.1688 36.6 10.2107C37.9071 13.5964 37.0821 16.1036 36.8357 16.725C38.3679 18.45 39.3 20.6464 39.3 23.325C39.3 32.775 33.6857 34.8536 28.3393 35.4643C29.1964 36.225 29.9679 37.725 29.9679 40.0178C29.9679 43.3071 29.9357 45.9643 29.9357 46.7678C29.9357 47.3464 30.2679 48 31.1571 48C31.3011 48.0006 31.4447 47.9862 31.5857 47.9571C41.1321 44.7 48 35.475 48 24.6107C48 11.025 37.2536 0 24 0Z" fill="black"/>
</svg>
