<svg width="136" height="136" viewBox="0 0 136 136" fill="none" xmlns="http://www.w3.org/2000/svg">
<circle cx="68" cy="68" r="68" fill="black"/>
<path d="M58.0578 30.1172C58.0578 16.3965 50.1021 10 40.0901 10C28.4135 10 22 18.8379 22 29.873V98.9648C22 110.513 28.1932 119.326 40.3349 119.326C50.0776 119.326 58.0578 113.076 58.0578 98.9648V80.2881L85.499 114.053C91.0557 120.693 103.148 121.548 110.761 114.053C117.371 107.314 117.444 97.5977 112.573 91.543L90.3458 63.5156L108.681 37.2949C112.94 31.2646 112.965 21.8896 106.135 15.3711C98.7177 8.29102 85.9641 7.65625 78.3266 18.4961L58.0578 47.3535V30.1172Z" fill="#C3EEE4"/>
</svg>
